<svg data-v-423bf9ae="" xmlns="http://www.w3.org/2000/svg" viewBox="0 0 337 90" class="iconLeft"><!----><!----><!----><g data-v-423bf9ae="" id="381ae675-d546-4479-b3e7-1cceaf6af1d4" fill="white" transform="matrix(5.899704970490485,0,0,5.899704970490485,184.25038556057024,-13.023597656155488)"><path d="M8.60 10.46L8.60 13.31L8.60 13.31Q8.60 13.75 8.44 13.96L8.44 13.96L8.44 13.96Q8.29 14.17 7.95 14.36L7.95 14.36L7.95 14.36Q7.76 14.48 7.46 14.58L7.46 14.58L7.46 14.58Q7.17 14.69 6.82 14.76L6.82 14.76L6.82 14.76Q6.47 14.84 6.08 14.88L6.08 14.88L6.08 14.88Q5.70 14.92 5.32 14.92L5.32 14.92L5.32 14.92Q4.31 14.92 3.43 14.65L3.43 14.65L3.43 14.65Q2.55 14.38 1.90 13.83L1.90 13.83L1.90 13.83Q1.25 13.27 0.87 12.45L0.87 12.45L0.87 12.45Q0.49 11.62 0.49 10.53L0.49 10.53L0.49 10.53Q0.49 9.38 0.90 8.53L0.90 8.53L0.90 8.53Q1.32 7.67 2.00 7.11L2.00 7.11L2.00 7.11Q2.67 6.54 3.55 6.26L3.55 6.26L3.55 6.26Q4.42 5.98 5.35 5.98L5.35 5.98L5.35 5.98Q6.68 5.98 7.46 6.41L7.46 6.41L7.46 6.41Q8.23 6.83 8.23 7.52L8.23 7.52L8.23 7.52Q8.23 7.88 8.05 8.15L8.05 8.15L8.05 8.15Q7.87 8.41 7.63 8.57L7.63 8.57L7.63 8.57Q7.28 8.36 6.75 8.16L6.75 8.16L6.75 8.16Q6.23 7.95 5.57 7.95L5.57 7.95L5.57 7.95Q4.40 7.95 3.70 8.62L3.70 8.62L3.70 8.62Q3.01 9.30 3.01 10.49L3.01 10.49L3.01 10.49Q3.01 11.13 3.20 11.60L3.20 11.60L3.20 11.60Q3.39 12.07 3.71 12.37L3.71 12.37L3.71 12.37Q4.03 12.67 4.45 12.82L4.45 12.82L4.45 12.82Q4.87 12.96 5.35 12.96L5.35 12.96L5.35 12.96Q5.66 12.96 5.89 12.91L5.89 12.91L5.89 12.91Q6.13 12.85 6.26 12.78L6.26 12.78L6.26 11.47L4.76 11.47L4.76 11.47Q4.68 11.31 4.60 11.06L4.60 11.06L4.60 11.06Q4.52 10.81 4.52 10.53L4.52 10.53L4.52 10.53Q4.52 10.02 4.75 9.80L4.75 9.80L4.75 9.80Q4.98 9.58 5.35 9.58L5.35 9.58L7.71 9.58L7.71 9.58Q8.13 9.58 8.37 9.81L8.37 9.81L8.37 9.81Q8.60 10.04 8.60 10.46L8.60 10.46ZM11.51 6.22L16.17 6.22L16.17 6.22Q16.27 6.37 16.34 6.63L16.34 6.63L16.34 6.63Q16.42 6.89 16.42 7.17L16.42 7.17L16.42 7.17Q16.42 7.71 16.19 7.95L16.19 7.95L16.19 7.95Q15.96 8.18 15.57 8.18L15.57 8.18L12.63 8.18L12.63 9.76L15.69 9.76L15.69 9.76Q15.81 9.91 15.88 10.16L15.88 10.16L15.88 10.16Q15.96 10.42 15.96 10.70L15.96 10.70L15.96 10.70Q15.96 11.23 15.73 11.46L15.73 11.46L15.73 11.46Q15.50 11.69 15.11 11.69L15.11 11.69L12.66 11.69L12.66 14.64L12.66 14.64Q12.50 14.69 12.17 14.73L12.17 14.73L12.17 14.73Q11.84 14.77 11.52 14.77L11.52 14.77L11.52 14.77Q11.20 14.77 10.96 14.72L10.96 14.72L10.96 14.72Q10.71 14.67 10.54 14.55L10.54 14.55L10.54 14.55Q10.37 14.42 10.29 14.20L10.29 14.20L10.29 14.20Q10.21 13.97 10.21 13.61L10.21 13.61L10.21 7.52L10.21 7.52Q10.21 6.92 10.56 6.57L10.56 6.57L10.56 6.57Q10.91 6.22 11.51 6.22L11.51 6.22ZM17.29 6.01L17.29 6.01L17.29 6.01Q17.29 5.47 17.65 5.11L17.65 5.11L17.65 5.11Q18.00 4.75 18.59 4.75L18.59 4.75L18.59 4.75Q19.18 4.75 19.54 5.11L19.54 5.11L19.54 5.11Q19.89 5.47 19.89 6.01L19.89 6.01L19.89 6.01Q19.89 6.54 19.54 6.90L19.54 6.90L19.54 6.90Q19.18 7.27 18.59 7.27L18.59 7.27L18.59 7.27Q18.00 7.27 17.65 6.90L17.65 6.90L17.65 6.90Q17.29 6.54 17.29 6.01ZM19.78 8.99L19.78 14.69L19.78 14.69Q19.63 14.71 19.33 14.76L19.33 14.76L19.33 14.76Q19.03 14.81 18.72 14.81L18.72 14.81L18.72 14.81Q18.41 14.81 18.17 14.77L18.17 14.77L18.17 14.77Q17.92 14.73 17.75 14.60L17.75 14.60L17.75 14.60Q17.58 14.48 17.49 14.26L17.49 14.26L17.49 14.26Q17.40 14.04 17.40 13.69L17.40 13.69L17.40 7.99L17.40 7.99Q17.56 7.97 17.86 7.92L17.86 7.92L17.86 7.92Q18.16 7.87 18.47 7.87L18.47 7.87L18.47 7.87Q18.77 7.87 19.02 7.91L19.02 7.91L19.02 7.91Q19.26 7.95 19.43 8.08L19.43 8.08L19.43 8.08Q19.60 8.20 19.69 8.42L19.69 8.42L19.69 8.42Q19.78 8.64 19.78 8.99L19.78 8.99ZM23.67 10.25L23.67 12.36L23.67 12.36Q23.67 12.73 23.91 12.88L23.91 12.88L23.91 12.88Q24.14 13.03 24.56 13.03L24.56 13.03L24.56 13.03Q24.77 13.03 24.99 13.00L24.99 13.00L24.99 13.00Q25.21 12.96 25.38 12.91L25.38 12.91L25.38 12.91Q25.51 13.06 25.60 13.25L25.60 13.25L25.60 13.25Q25.69 13.44 25.69 13.71L25.69 13.71L25.69 13.71Q25.69 14.24 25.29 14.57L25.29 14.57L25.29 14.57Q24.89 14.91 23.88 14.91L23.88 14.91L23.88 14.91Q22.65 14.91 21.99 14.35L21.99 14.35L21.99 14.35Q21.32 13.79 21.32 12.53L21.32 12.53L21.32 6.54L21.32 6.54Q21.48 6.50 21.76 6.45L21.76 6.45L21.76 6.45Q22.05 6.40 22.37 6.40L22.37 6.40L22.37 6.40Q22.99 6.40 23.33 6.62L23.33 6.62L23.33 6.62Q23.67 6.83 23.67 7.53L23.67 7.53L23.67 8.43L25.51 8.43L25.51 8.43Q25.59 8.58 25.67 8.81L25.67 8.81L25.67 8.81Q25.75 9.04 25.75 9.32L25.75 9.32L25.75 9.32Q25.75 9.81 25.53 10.03L25.53 10.03L25.53 10.03Q25.31 10.25 24.95 10.25L24.95 10.25L23.67 10.25Z"></path></g><!----><g data-v-423bf9ae="" id="195d3ee5-758a-41e5-88c1-5e32f0faf724" transform="matrix(1.8571249550536113,0,0,1.8571249550536113,-8.85624775268056,-47.08725219513386)" stroke="none" fill="white"><path d="M5 43.077h3.462v13.846H5zM11.923 32.692h3.462v34.615h-3.462zM18.846 25.769h6.924v48.462h-6.924zM29.23 46.539h41.539v6.923H29.23zM91.538 43.077H95v13.846h-3.462zM84.615 32.692h3.462v34.615h-3.462zM74.23 25.769h6.924v48.462H74.23z"></path></g><!----></svg>